<?xml version="1.0" encoding="iso-8859-1"?>
<!-- Generator: Adobe Illustrator 19.0.0, SVG Export Plug-In . SVG Version: 6.00 Build 0)  -->
<svg version="1.1" id="Capa_1" xmlns="http://www.w3.org/2000/svg" xmlns:xlink="http://www.w3.org/1999/xlink" x="0px" y="0px"
	 viewBox="0 0 512 512" style="enable-background:new 0 0 512 512;" xml:space="preserve">
<circle style="fill:#00BB64;" cx="256" cy="256" r="256"/>
<path style="fill:#008C49;" d="M512,256c0-5.234-0.176-10.426-0.486-15.583L361.776,90.384c-3.63-3.772-8.541-6.355-14.148-7
	c-8.091-0.931-15.682,2.398-20.56,8.197l-18.16-18.11c-1.911-2.155-4.209-4.031-6.873-5.506c-1.812-1.004-3.692-1.763-5.604-2.299
	l-9.871-9.979c-0.978-1.188-2.135-2.26-3.479-3.161c-7.232-4.851-16.906-3.197-22.166,3.579c-1.079-1.608-2.475-3.04-4.182-4.185
	c-7.028-4.714-16.548-2.839-21.262,4.19c-0.927,1.382-1.59,2.862-2.019,4.382c-2.004-0.51-4.1-0.795-6.26-0.812
	c-9.252-0.076-17.415,4.666-22.124,11.877c-1.327-0.315-2.704-0.503-4.126-0.515c-7.314-0.06-13.649,4.158-16.679,10.306
	c-1.663,0.076-3.342,0.321-5.018,0.748c-8.517,2.17-14.868,8.502-17.448,16.267c-1.295,0.031-2.605,0.192-3.914,0.526
	c-9.374,2.389-15.037,11.924-12.648,21.298c0.587,2.304,1.611,4.378,2.954,6.167c-1.722,1.22-3.284,2.661-4.625,4.303
	c-1.149-0.406-2.354-0.704-3.616-0.849c-9.038-1.04-17.208,5.443-18.249,14.481c-0.735,6.383,2.294,12.316,7.317,15.622
	c1.226,1.854,2.815,3.456,4.69,4.69c0.071,0.107,0.143,0.215,0.216,0.32c-0.325,0.977-0.56,1.999-0.682,3.063
	c-0.221,1.921-0.061,3.794,0.393,5.561c-5.305,4.638-9.031,11.131-10.07,18.66c-1.465,10.621,2.768,20.708,10.353,27.193
	c-0.56,1.478-0.981,3.032-1.206,4.664c-0.346,2.506-0.239,4.969,0.253,7.309h-0.013l22.309,184.376h-4.073
	c-3.086,0-5.587,2.501-5.587,5.587v16.295c0,1.442,0.547,2.754,1.444,3.743l68.409,67.421C228.66,510.894,242.2,512,256,512
	C397.385,512,512,397.385,512,256z"/>
<path style="fill:#ECB300;" d="M163.686,171.487c0.109-0.943,0.117-1.873,0.055-2.787c10.825-0.95,19.856-9.393,21.148-20.609
	c1.476-12.822-7.722-24.412-20.543-25.888c-8.212-0.945-15.914,2.493-20.782,8.452c-1.149-0.406-2.354-0.704-3.616-0.849
	c-9.038-1.04-17.208,5.443-18.249,14.481c-0.996,8.652,4.909,16.49,13.343,18.059c-0.934,1.696-1.567,3.593-1.802,5.636
	c-0.968,8.408,5.063,16.008,13.471,16.975C155.118,185.926,162.718,179.895,163.686,171.487z"/>
<path style="fill:#FEC000;" d="M219.558,156.56c0.108-0.943,0.117-1.873,0.055-2.787c10.825-0.95,19.856-9.393,21.147-20.609
	c1.476-12.822-7.722-24.412-20.543-25.888c-8.212-0.945-15.914,2.492-20.782,8.452c-1.149-0.406-2.354-0.704-3.616-0.849
	c-9.038-1.04-17.208,5.443-18.249,14.481c-0.996,8.651,4.909,16.49,13.343,18.059c-0.934,1.695-1.567,3.593-1.802,5.636
	c-0.968,8.407,5.063,16.008,13.471,16.975C210.99,170.999,218.59,164.968,219.558,156.56z"/>
<path style="fill:#ECB300;" d="M266.047,135.945c0.108-0.943,0.116-1.873,0.055-2.787c10.825-0.95,19.856-9.393,21.147-20.609
	c1.476-12.821-7.722-24.412-20.543-25.888c-8.212-0.945-15.914,2.493-20.782,8.452c-1.149-0.406-2.354-0.703-3.616-0.849
	c-9.038-1.04-17.208,5.443-18.249,14.481c-0.996,8.651,4.909,16.49,13.343,18.059c-0.934,1.695-1.567,3.593-1.802,5.636
	c-0.968,8.407,5.063,16.008,13.471,16.975C257.479,150.383,265.08,144.352,266.047,135.945z"/>
<path style="fill:#FEC000;" d="M310.782,174.68c0.124-1.079,0.133-2.143,0.064-3.189c12.389-1.087,22.725-10.75,24.203-23.587
	c1.689-14.674-8.837-27.938-23.511-29.628c-9.398-1.082-18.213,2.853-23.784,9.673c-1.315-0.465-2.694-0.805-4.139-0.971
	c-10.344-1.191-19.694,6.229-20.885,16.573c-1.14,9.901,5.618,18.872,15.27,20.668c-1.069,1.94-1.793,4.113-2.062,6.45
	c-1.108,9.622,5.795,18.32,15.417,19.428C300.976,191.205,309.674,184.303,310.782,174.68z"/>
<path style="fill:#ECB300;" d="M314.951,206.461c1.009-0.48,1.941-1.053,2.816-1.685c7.707,10.209,21.771,13.951,33.77,8.236
	c13.716-6.532,19.54-22.947,13.008-36.663c-4.184-8.785-12.423-14.325-21.41-15.462c-0.312-1.4-0.768-2.789-1.411-4.139
	c-4.605-9.669-16.176-13.774-25.845-9.169c-9.255,4.408-13.391,15.195-9.691,24.59c-2.275,0.126-4.564,0.68-6.749,1.721
	c-8.994,4.283-12.813,15.047-8.53,24.041S305.957,210.745,314.951,206.461z"/>
<path style="fill:#FEC000;" d="M215.552,236.516c0.979-0.466,1.885-1.022,2.734-1.635c7.482,9.912,21.137,13.544,32.786,7.996
	c13.317-6.342,18.971-22.279,12.629-35.596c-4.062-8.529-12.062-13.908-20.786-15.011c-0.303-1.359-0.745-2.707-1.37-4.018
	c-4.471-9.387-15.705-13.373-25.092-8.902c-8.986,4.279-13.001,14.752-9.409,23.874c-2.209,0.123-4.431,0.66-6.552,1.67
	c-8.732,4.159-12.44,14.609-8.281,23.341C196.37,236.967,206.82,240.674,215.552,236.516z"/>
<path style="fill:#FFE670;" d="M232.317,114.606c0.009-1.062-0.093-2.098-0.269-3.108c11.934-2.344,20.982-12.814,21.086-25.451
	c0.118-14.445-11.496-26.251-25.941-26.369c-9.252-0.076-17.415,4.666-22.124,11.877c-1.327-0.315-2.704-0.503-4.126-0.515
	c-10.182-0.083-18.505,8.104-18.588,18.286c-0.08,9.747,7.424,17.769,16.996,18.512c-0.838,1.998-1.317,4.186-1.335,6.486
	c-0.078,9.472,7.538,17.214,17.01,17.291C224.498,131.694,232.24,124.079,232.317,114.606z"/>
<g>
	<path style="fill:#FFFFFF;" d="M197.251,131.312c-0.249-0.978-0.593-1.905-1-2.79c10.395-5.043,16.172-16.851,13.208-28.484
		c-3.388-13.298-16.915-21.331-30.213-17.943c-8.517,2.17-14.868,8.502-17.448,16.267c-1.295,0.031-2.605,0.192-3.914,0.526
		c-9.374,2.388-15.037,11.924-12.648,21.298c2.286,8.973,11.121,14.526,20.095,12.891c-0.286,2.038-0.196,4.164,0.344,6.282
		c2.222,8.72,11.092,13.988,19.812,11.766C194.205,148.903,199.473,140.032,197.251,131.312z"/>
	<path style="fill:#FFFFFF;" d="M314.896,224.516c0.765,0.964,1.611,1.824,2.505,2.607c-9.056,10.799-9.596,26.824-0.493,38.295
		c10.405,13.112,29.469,15.306,42.581,4.901c8.398-6.664,12.309-16.881,11.307-26.81c1.426-0.681,2.804-1.514,4.095-2.538
		c9.243-7.335,10.79-20.773,3.455-30.016c-7.021-8.847-19.625-10.621-28.798-4.325c-0.698-2.412-1.858-4.732-3.516-6.821
		c-6.823-8.598-19.324-10.037-27.922-3.214C309.512,203.417,308.073,215.918,314.896,224.516z"/>
</g>
<g>
	<path style="fill:#FFE670;" d="M215.476,192.707c-0.119-1.055-0.345-2.072-0.642-3.053c11.566-3.763,19.288-15.246,17.87-27.803
		c-1.62-14.354-14.571-24.677-28.925-23.057c-9.194,1.038-16.727,6.727-20.534,14.453c-1.355-0.154-2.745-0.174-4.158-0.015
		c-10.119,1.142-17.395,10.271-16.253,20.39c1.094,9.686,9.508,16.747,19.1,16.333c-0.592,2.084-0.803,4.314-0.545,6.6
		c1.063,9.413,9.555,16.182,18.967,15.119C209.77,210.611,216.539,202.12,215.476,192.707z"/>
	<path style="fill:#FFE670;" d="M315.022,207.718c-0.929-0.515-1.888-0.92-2.86-1.247c3.636-11.606-1.246-24.554-12.301-30.676
		c-12.637-6.998-28.555-2.428-35.553,10.209c-4.483,8.094-4.212,17.53-0.123,25.11c-0.911,1.015-1.733,2.136-2.421,3.38
		c-4.933,8.908-1.711,20.129,7.197,25.062c8.527,4.722,19.158,1.958,24.38-6.099c1.356,1.69,3.049,3.155,5.062,4.269
		c8.286,4.589,18.724,1.592,23.313-6.695C326.306,222.745,323.308,212.308,315.022,207.718z"/>
	<path style="fill:#FFE670;" d="M317.196,99.887c-0.929-0.514-1.888-0.92-2.86-1.247c3.636-11.606-1.246-24.554-12.301-30.676
		c-12.637-6.999-28.555-2.428-35.553,10.209c-4.483,8.094-4.212,17.53-0.123,25.11c-0.911,1.015-1.733,2.136-2.421,3.38
		c-4.933,8.908-1.711,20.129,7.197,25.062c8.527,4.722,19.158,1.958,24.38-6.099c1.356,1.69,3.05,3.155,5.062,4.269
		c8.287,4.589,18.724,1.592,23.314-6.695S325.483,104.476,317.196,99.887z"/>
</g>
<g>
	<path style="fill:#FFFFFF;" d="M187.446,194.496c-1.219-0.168-2.425-0.206-3.612-0.153c-0.916-14.063-11.6-26.02-26.106-28.022
		c-16.582-2.288-31.878,9.3-34.166,25.882c-1.465,10.621,2.768,20.708,10.353,27.193c-0.56,1.478-0.981,3.032-1.206,4.664
		c-1.613,11.689,6.556,22.472,18.244,24.084c11.189,1.544,21.525-5.884,23.805-16.773c2.171,1.261,4.614,2.136,7.255,2.501
		c10.873,1.5,20.904-6.098,22.404-16.971C205.918,206.027,198.319,195.996,187.446,194.496z"/>
	<path style="fill:#FFFFFF;" d="M224.63,152.308c0.793,0.999,1.67,1.891,2.597,2.703c-9.389,11.196-9.949,27.811-0.512,39.703
		c10.788,13.594,30.553,15.869,44.147,5.082c8.707-6.91,12.761-17.501,11.723-27.796c1.479-0.706,2.907-1.569,4.245-2.631
		c9.583-7.604,11.187-21.537,3.582-31.12c-7.279-9.173-20.347-11.012-29.857-4.485c-0.724-2.5-1.927-4.906-3.645-7.072
		c-7.074-8.914-20.035-10.406-28.949-3.332C219.048,130.433,217.556,143.394,224.63,152.308z"/>
</g>
<path style="fill:#FFE670;" d="M379.439,146.107c-0.929-0.515-1.888-0.92-2.86-1.247c3.636-11.606-1.246-24.554-12.301-30.676
	c-12.637-6.999-28.555-2.428-35.553,10.209c-4.483,8.094-4.212,17.53-0.123,25.11c-0.911,1.016-1.733,2.136-2.421,3.38
	c-4.933,8.908-1.711,20.129,7.197,25.062c8.527,4.722,19.158,1.958,24.38-6.099c1.356,1.69,3.049,3.155,5.062,4.269
	c8.287,4.589,18.724,1.592,23.314-6.695C390.722,161.134,387.725,150.696,379.439,146.107z"/>
<g>
	<path style="fill:#FFFFFF;" d="M239.662,77.371c0.788,0.529,1.611,0.962,2.451,1.327c-4.118,10.056-0.755,21.953,8.621,28.242
		c10.718,7.189,25.235,4.329,32.425-6.39c4.605-6.865,5.08-15.286,2.015-22.344c0.888-0.835,1.704-1.77,2.412-2.825
		c5.068-7.556,3.051-17.789-4.504-22.857c-7.232-4.851-16.906-3.197-22.166,3.579c-1.079-1.608-2.475-3.04-4.182-4.185
		c-7.028-4.714-16.548-2.839-21.262,4.19C230.758,63.137,232.633,72.657,239.662,77.371z"/>
	<path style="fill:#FFFFFF;" d="M381.435,207.003c0.109-0.943,0.117-1.873,0.056-2.787c10.825-0.95,19.856-9.393,21.147-20.609
		c1.476-12.822-7.722-24.412-20.543-25.888c-8.212-0.945-15.914,2.493-20.782,8.452c-1.149-0.406-2.354-0.703-3.616-0.849
		c-9.038-1.04-17.208,5.443-18.249,14.481c-0.996,8.651,4.909,16.49,13.342,18.059c-0.934,1.695-1.567,3.593-1.802,5.635
		c-0.968,8.408,5.063,16.008,13.471,16.976C372.867,221.441,380.467,215.41,381.435,207.003z"/>
</g>
<polygon style="fill:#E02424;" points="132.949,231.37 155.438,417.228 359.333,417.228 381.822,231.37 "/>
<polygon style="fill:#C2001B;" points="381.822,231.369 257.385,231.369 257.385,417.228 359.333,417.228 "/>
<path style="fill:#FFFFFF;" d="M363.585,415.746h-31.971l12.508-184.376h-29.268l-12.508,184.376H272.02V231.369h-29.269v184.376
	h-30.326l-12.508-184.376h-29.269l12.508,184.376h-31.971c-3.086,0-5.587,2.501-5.587,5.587v16.295c0,3.086,2.501,5.587,5.587,5.587
	h212.4c3.086,0,5.587-2.501,5.587-5.587v-16.295C369.172,418.247,366.671,415.746,363.585,415.746z"/>
<path style="fill:#E1E1E3;" d="M363.585,415.746h-31.971l12.508-184.376h-29.268l-12.508,184.376H272.02V231.369h-14.634v211.845
	h106.2c3.086,0,5.587-2.501,5.587-5.587v-16.295C369.172,418.247,366.671,415.746,363.585,415.746z"/>
<path style="fill:#FFFFFF;" d="M346.968,132.667c0.108-0.943,0.117-1.873,0.056-2.787c10.825-0.95,19.856-9.393,21.147-20.609
	c1.476-12.821-7.722-24.412-20.543-25.888c-8.212-0.945-15.914,2.493-20.782,8.452c-1.149-0.406-2.354-0.703-3.616-0.849
	c-9.038-1.04-17.208,5.443-18.249,14.481c-0.996,8.652,4.909,16.49,13.343,18.059c-0.934,1.696-1.567,3.593-1.802,5.636
	c-0.968,8.408,5.063,16.008,13.471,16.975C338.4,147.106,346.001,141.075,346.968,132.667z"/>
<g>
</g>
<g>
</g>
<g>
</g>
<g>
</g>
<g>
</g>
<g>
</g>
<g>
</g>
<g>
</g>
<g>
</g>
<g>
</g>
<g>
</g>
<g>
</g>
<g>
</g>
<g>
</g>
<g>
</g>
</svg>
